<svg xmlns="http://www.w3.org/2000/svg" viewBox="0 0 64 64">
  <defs>
    <filter id="blur" width="200%" height="200%">
      <feGaussianBlur in="SourceAlpha" stdDeviation="3"/>
      <feOffset dy="4" result="offsetblur"/>
      <feComponentTransfer>
        <feFuncA slope=".05" type="linear"/>
      </feComponentTransfer>
      <feMerge>
        <feMergeNode/>
        <feMergeNode in="SourceGraphic"/>
      </feMerge>
    </filter>
  </defs>
  <g id="cloudy" filter="url(#blur)">
    <path fill="#91C0F8" stroke="#fff" stroke-linejoin="round" stroke-width="1.2" d="M47.7 35.4c0-4.6-3.7-8.2-8.2-8.2-1 0-1.9.2-2.8.5-.3-3.4-3.1-6.2-6.6-6.2-3.7 0-6.7 3-6.7 6.7 0 .8.2 1.6.4 2.3-.3-.1-.7-.1-1-.1-3.7 0-6.7 3-6.7 6.7 0 3.6 2.9 6.6 6.5 6.7h17.2c4.4-.5 7.9-4 7.9-8.4z" style="-webkit-animation-name:am-weather-cloud-1;-moz-animation-name:am-weather-cloud-1;animation-name:am-weather-cloud-1;-webkit-animation-duration:7s;-moz-animation-duration:7s;animation-duration:7s;-webkit-animation-timing-function:linear;-moz-animation-timing-function:linear;animation-timing-function:linear;-webkit-animation-iteration-count:infinite;-moz-animation-iteration-count:infinite;animation-iteration-count:infinite" transform="matrix(.6 0 0 .6 10 2)"/>
    <path fill="#57A0EE" stroke="#fff" stroke-linejoin="round" stroke-width="1.2" d="M47.7 35.4c0-4.6-3.7-8.2-8.2-8.2-1 0-1.9.2-2.8.5-.3-3.4-3.1-6.2-6.6-6.2-3.7 0-6.7 3-6.7 6.7 0 .8.2 1.6.4 2.3-.3-.1-.7-.1-1-.1-3.7 0-6.7 3-6.7 6.7 0 3.6 2.9 6.6 6.5 6.7h17.2c4.4-.5 7.9-4 7.9-8.4z" style="-webkit-animation-name:am-weather-cloud-2;-moz-animation-name:am-weather-cloud-2;animation-name:am-weather-cloud-2;-webkit-animation-duration:3s;-moz-animation-duration:3s;animation-duration:3s;-webkit-animation-timing-function:linear;-moz-animation-timing-function:linear;animation-timing-function:linear;-webkit-animation-iteration-count:infinite;-moz-animation-iteration-count:infinite;animation-iteration-count:infinite" transform="translate(0 -1)"/>
  </g>
</svg>