<svg xmlns="http://www.w3.org/2000/svg" xml:space="preserve" viewBox="0 0 512 512">
  <circle cx="256" cy="256" r="256" fill="#44CB43"/>
  
  <g fill="#817E73">
    <path d="M407.764 104.236a17.218 17.218 0 0 0-14.208-4.93l-67.169 7.916a17.236 17.236 0 0 0-10.173 29.309l17.436 17.436-69.727 69.727 24.379 24.381 69.729-69.729 17.437 17.437a17.245 17.245 0 0 0 17.842 4.096 17.235 17.235 0 0 0 11.467-14.269l7.916-67.169a17.232 17.232 0 0 0-4.929-14.205zM223.697 263.923l-69.729 69.729-17.437-17.437a17.235 17.235 0 0 0-17.842-4.096 17.235 17.235 0 0 0-11.467 14.269l-7.916 67.169a17.24 17.24 0 0 0 19.139 19.138l67.169-7.916a17.236 17.236 0 0 0 10.173-29.309l-17.436-17.436 69.729-69.727-24.383-24.384z"/>
  </g>
  <g fill="#817E73">
    <path d="M407.764 104.236c-.386-.386-.798-.74-1.214-1.084L274.965 234.737l13.338 13.34 69.729-69.729 17.437 17.437a17.245 17.245 0 0 0 17.842 4.096 17.235 17.235 0 0 0 11.467-14.269l7.916-67.169a17.237 17.237 0 0 0-4.93-14.207zM234.737 274.965 103.152 406.55c.345.417.696.827 1.083 1.214a17.244 17.244 0 0 0 14.209 4.93l67.169-7.916a17.236 17.236 0 0 0 10.173-29.309l-17.436-17.436 69.729-69.727-13.342-13.341z"/>
  </g>
</svg>