<svg xmlns="http://www.w3.org/2000/svg" viewBox="0 0 512 512" xml:space="preserve">
  <circle cx="256" cy="256" r="256" fill="#ff5b62"/>
  <path d="M49.391 99.711H462.61c5.046 0 9.173 4.128 9.173 9.172v253.18c0 5.044-4.127 9.172-9.173 9.172H49.391c-5.046 0-9.173-4.128-9.173-9.172v-253.18c-.001-5.044 4.126-9.172 9.173-9.172z" fill="#807d7d"/>
  <path d="M59.455 118.133h393.091v239.564H59.455V118.133z" fill="#fff"/>
  <path d="M.01 377.209h511.981v17.541c0 9.646-7.891 17.539-17.539 17.539H17.547c-9.646 0-17.538-7.893-17.538-17.539l.001-17.541z" fill="#dce3db"/>
  <path d="M198.698 379.735h114.606l-4.214 8.088H202.91l-4.212-8.088z" fill="#c2c2c4"/>
  <path d="M59.455 118.135h40.037v15.045H59.455v-15.045z" fill="#fad24d"/>
  <path d="M452.546 118.135H99.489v15.045h353.057v-15.045z" fill="#21d0c3"/>
  <path d="M95.178 371.234h28.58v5.975h-28.58v-5.975zm293.067 0h28.58v5.975h-28.58v-5.975z" fill="#666"/>
  <path d="M244.992 158.505c5.096 0 10.077.487 14.907 1.402l.34.066c.523.103 1.044.21 1.561.319l.135.028.338.076c.45.099.898.203 1.343.31l.336.081c.555.137 1.112.279 1.663.428l.331.09c.552.151 1.102.305 1.649.469l.327.098c.437.131.87.265 1.303.403l.326.106.323.105c.431.144.861.291 1.29.441l.321.111.072.027c.51.182 1.017.365 1.521.556l.001.001.318.122.015.006c.475.183.949.369 1.423.56l.139.058.313.129c.408.169.815.341 1.223.516l.024.011.308.135.308.136c.39.174.778.35 1.163.527l.069.032.306.143c.502.239 1.004.479 1.502.725l.017.007.301.151c26.021 13.035 43.888 39.949 43.888 71.036 0 31.091-17.865 58.002-43.888 71.039l-.301.149-.017.008c-.497.247-1 .489-1.502.725l-.306.143-.069.034c-.384.177-.772.351-1.163.523l-.308.137-.308.136-.024.012c-.406.176-.814.347-1.223.515l-.313.13-.139.057c-.474.191-.948.378-1.423.56l-.015.008-.318.119-.001.001c-.503.19-1.01.377-1.521.556l-.072.027-.321.112c-.429.15-.859.295-1.29.437l-.323.106-.326.105c-.434.142-.866.273-1.303.406l-.327.098c-.547.163-1.098.316-1.649.467l-.331.092c-.552.149-1.108.288-1.663.428l-.336.079c-.445.109-.893.211-1.343.312l-.338.072-.135.031c-.516.112-1.037.219-1.561.32l-.34.065c-4.83.918-9.811 1.402-14.907 1.402-3.811 0-7.554-.274-11.223-.793h-.001l-.026-.004c-1.218-.172-2.421-.372-3.619-.6l-.453-.085c-.451-.09-.899-.181-1.348-.278l-.448-.096-.037-.009c-3.095-.682-6.126-1.543-9.076-2.576l-.066-.022-.423-.151c-.425-.154-.851-.306-1.27-.466l-.422-.159c-29.825-11.433-50.999-40.327-50.999-74.173 0-33.843 21.175-62.738 50.999-74.17l.422-.158c.418-.159.844-.316 1.27-.467l.423-.151.066-.022c2.95-1.033 5.981-1.895 9.076-2.579l.037-.007.448-.097c.449-.096.897-.187 1.348-.274l.453-.089c1.197-.228 2.403-.424 3.619-.599l.026-.002h.001c3.666-.521 7.413-.795 11.223-.795zm-11.014 20.998c-7.075 4.954-13.207 11.161-18.075 18.299 4.004.657 8.088 1.179 12.243 1.561 1.549-6.921 3.509-13.562 5.832-19.86zm-26.721 16.652c7.273-11.734 17.517-21.434 29.685-28.049-1.047-.214-2.101-.404-3.166-.573-17.118 2.707-32.206 11.51-42.979 24.109 5.28 1.764 10.778 3.272 16.46 4.513zm-22.158 3.134c-6.363 9.845-10.367 21.358-11.205 33.737h21.655c.61-10.041 3.086-19.579 7.087-28.27-6.095-1.514-11.954-3.346-17.537-5.467zm25.697 7.275c-3.965 8.079-6.444 17.019-7.084 26.463h20.309c.221-8.299 1-16.38 2.28-24.165-5.29-.543-10.467-1.313-15.505-2.298zm13.224 36.239h-20.308c.549 8.123 2.462 15.871 5.508 23.02 5.356-1.1 10.87-1.958 16.512-2.554-.943-6.634-1.525-13.474-1.712-20.466zm-22.851 24.883c-3.139-7.761-5.09-16.128-5.62-24.883h-21.655c.754 11.128 4.064 21.554 9.347 30.699 5.689-2.254 11.683-4.202 17.928-5.816zm-12.76 13.552c10.87 14.175 26.944 24.15 45.366 27.063 1.066-.17 2.12-.36 3.166-.575-13.3-7.228-24.305-18.146-31.638-31.38-5.847 1.35-11.493 2.989-16.894 4.892zm25.314-6.605c5.163 8.572 12.078 15.971 20.254 21.698-2.733-7.409-4.962-15.297-6.617-23.556-4.637.448-9.188 1.069-13.637 1.858zm42.563 26.066c10.814-5.823 19.949-14.359 26.498-24.699-5.891-1.297-11.981-2.303-18.235-2.987-1.982 9.817-4.775 19.103-8.263 27.686zm34.783-22.641c-7.19 12.244-17.566 22.391-29.996 29.301 16.34-3.768 30.528-13.156 40.427-26.017-3.386-1.201-6.864-2.297-10.431-3.284zm15.613-4.446c5.318-9.169 8.651-19.636 9.409-30.809h-14.285c-.579 9.49-2.82 18.529-6.441 26.83 3.887 1.195 7.664 2.525 11.317 3.979zm-19.25-6.193c3.455-7.585 5.619-15.884 6.209-24.616h-25.705c-.188 7.082-.781 14.006-1.747 20.721 7.331.87 14.434 2.185 21.243 3.895zm-19.497-34.393h25.705c-.679-10.037-3.439-19.509-7.85-27.979-6.484 1.56-13.229 2.759-20.176 3.56 1.307 7.865 2.098 16.031 2.321 24.419zm25.892-30.13c4.523 9.182 7.324 19.366 7.977 30.13h14.285c-.842-12.426-4.871-23.977-11.274-33.848-3.55 1.358-7.217 2.601-10.988 3.718zm5.286-11.345c-9.733-11.348-22.974-19.603-38.041-23.077 11.319 6.291 20.939 15.271 27.996 26.074 3.429-.899 6.78-1.901 10.045-2.997zm-18.541 4.987c-6.331-8.865-14.641-16.211-24.286-21.405 3.047 7.501 5.565 15.542 7.474 24.005 5.753-.602 11.362-1.477 16.812-2.6zm-42.891 3.446c2.359.092 4.738.143 7.133.143 3.179 0 6.327-.081 9.441-.246-2.058-9.314-4.852-18.125-8.275-26.277-3.439 8.184-6.239 17.027-8.299 26.38zm18.398 9.466c-3.711.229-7.466.351-11.265.351-3.013 0-6-.078-8.957-.222-1.212 7.562-1.949 15.404-2.164 23.447h24.569c-.213-8.088-.961-15.973-2.183-23.576zm-22.385 33.353c.178 6.727.723 13.313 1.606 19.711 3.139-.164 6.313-.247 9.515-.247 3.991 0 7.932.135 11.824.384.893-6.44 1.445-13.072 1.625-19.847l-24.57-.001zm3.209 29.311c2.108 10.736 5.184 20.851 9.076 30.113 3.877-9.232 6.944-19.304 9.051-29.999-3.368-.189-6.775-.288-10.217-.288-2.659 0-5.294.062-7.91.174z" fill="#fad24d"/>
  <path d="M315.984 311.707c26.508 0 48.129-21.622 48.129-48.13 0-26.51-21.621-48.131-48.129-48.131-26.51 0-48.133 21.621-48.133 48.131 0 26.508 21.623 48.13 48.133 48.13z" fill="#21d0c3"/>
  <path d="M317.169 296.428c-4.544 0-8.707-.716-12.472-2.194-3.758-1.456-6.984-3.602-9.67-6.425-2.685-2.818-4.767-6.267-6.268-10.319-1.477-4.075-2.216-8.709-2.216-13.904 0-5.125.717-9.714 2.148-13.744 1.456-4.052 3.47-7.5 6.047-10.345 2.574-2.842 5.685-5.012 9.311-6.511 3.627-1.524 7.612-2.262 11.934-2.262 4.499 0 8.572.738 12.2 2.216 3.626 1.498 6.714 3.651 9.269 6.469 2.572 2.82 4.543 6.268 5.907 10.323 1.388 4.075 2.061 8.685 2.061 13.855v2.688h-47.213c.267 3.624.916 6.762 1.926 9.447 1.028 2.663 2.394 4.881 4.073 6.648 1.68 1.771 3.629 3.091 5.799 3.964 2.194.871 4.569 1.321 7.164 1.321 1.835 0 3.672-.249 5.506-.764 1.837-.493 3.494-1.232 4.948-2.193 1.456-.963 2.663-2.15 3.582-3.582.919-1.412 1.388-3.046 1.433-4.881h11.685c-.493 3.249-1.5 6.112-3.068 8.62-1.542 2.528-3.514 4.633-5.887 6.336-2.396 1.7-5.128 2.997-8.237 3.894-3.113.896-6.426 1.343-9.962 1.343zm16.453-38.953c-.872-5.954-2.889-10.432-6.067-13.431-3.178-3.023-7.029-4.546-11.573-4.546-2.241 0-4.322.383-6.291 1.121-1.97.74-3.717 1.857-5.262 3.358-1.521 1.477-2.822 3.358-3.852 5.597-1.05 2.261-1.809 4.881-2.238 7.902l35.283-.001z" fill="#fff"/>
</svg>