<?xml version="1.0" encoding="iso-8859-1"?>
<!-- Generator: Adobe Illustrator 19.0.0, SVG Export Plug-In . SVG Version: 6.00 Build 0)  -->
<svg version="1.1" id="Layer_1" xmlns="http://www.w3.org/2000/svg" xmlns:xlink="http://www.w3.org/1999/xlink" x="0px" y="0px"
	 viewBox="0 0 394.602 394.602" style="enable-background:new 0 0 394.602 394.602;" xml:space="preserve">
<circle style="fill:#6EB1E1;" cx="196.784" cy="197.301" r="196.784"/>
<g>
	<path style="fill:#F1F3F7;" d="M352.711,77.317c-1.552,0.517-2.909,0.776-4.202,1.293c-2.327,1.034-4.978,2.069-6.788,3.685
		c-2.909,2.651-3.426,2.651-5.754-0.776c1.034-0.517,1.81-0.776,3.943-1.81c-2.651-1.034-4.202-1.552-6.012-2.069
		c0,3.426,0,6.012,0,8.663c-5.495-1.034-8.921,1.293-8.663,6.012c-2.327-0.517-4.719-1.034-6.788-1.552
		c0,0.259-0.259,0.517-0.259,0.776c0.776,0.776,1.81,1.552,2.909,2.909c-4.202,0-6.529-1.293-7.046-3.943
		c-0.517-1.81-1.293-3.685-1.81-5.495c0.259,0,1.034,0.259,2.069,0.517c2.909,0.517,5.754,1.552,8.663,1.552
		c1.552,0,3.168-2.069,4.978-3.168c-1.034-1.293-2.069-3.168-3.426-3.685c-6.529-2.909-13.123-5.236-19.394-7.887
		c-0.259,0,0.517-0.259,1.552-0.517c-1.81-1.293-3.168-2.069-4.461-2.069c-1.81-0.259-3.685,0.259-5.495,0.259
		c-1.293,0-2.327-0.259-3.685,0c-3.168,1.034-6.271,2.651-9.438,2.909c-3.168,0.259-5.236,1.034-6.012,4.202
		c-1.293,0-2.909-0.259-4.202-0.259c0,0.259,0,0.517-0.259,0.776c0.776,0.517,1.552,1.034,2.327,1.293
		c-2.327,2.909-4.461,6.012-7.046,8.663c-2.65,2.909-4.978,6.012-8.145,8.145c-7.628,4.719-8.145,4.978-6.788,13.382
		c0,0.776,0.776,1.293,0.776,2.069c1.034,3.685,2.909,4.461,6.012,2.327c1.293-1.034,2.909-2.069,4.202-3.168
		c1.552,3.426,2.909,6.529,4.202,9.697c-1.034,0.776-2.069,1.552-3.168,2.651c0.259,1.034,0.776,1.81,1.293,3.168
		c0.776-1.552,1.034-2.651,1.552-3.685c1.81,0.776,7.046-1.034,7.887-2.909c1.552-3.685,2.909-7.305,4.461-11.248
		c-2.909-1.293-3.943-4.202-2.069-7.887c0.776-1.552,2.909-2.651,4.202-3.943s2.651-2.909,3.426-4.719
		c1.552-3.943,4.978-4.461,8.663-1.293c-1.034,1.034-2.069,2.327-3.426,3.426c-3.168,2.651-6.271,4.978-4.978,10.214
		c0.776,3.426,2.327,4.461,5.236,4.202c2.069-0.259,3.943-1.293,6.012-1.552c1.552-0.259,3.426,0.259,4.978,0.517
		c0,0.517,0,1.034,0,1.552c-3.943,0.517-8.145,1.293-11.766,1.81c0.517,2.909,1.034,4.978,1.552,7.046
		c-0.517,0.259-0.776,0.259-1.293,0.517c-1.034-0.776-2.069-1.552-4.202-3.426c-0.776,3.685-1.293,6.529-1.81,9.438
		c-1.552,0.517-3.426,3.685-6.012,0.776c-0.259-0.259-0.776,0-1.034,0.259c-3.685,3.426-8.145,1.034-12.024,1.81
		c-1.034,0.259-2.327-1.552-3.685-2.651v-0.517c0.517,0.259,1.034,0.259,1.293,0.259c-0.259-2.651-0.259-5.236-0.517-7.887
		c-8.404,2.069-2.069,7.887-2.909,10.731c-3.426,2.069-6.529,3.426-8.921,5.236c-3.168,2.651-5.754,5.495-8.663,8.404
		c-0.776,0.776-2.069,0.776-3.168,1.034c-0.517,0.259-0.776,0.517-1.293,0.776c-0.776,0.517-1.552,1.293-2.327,1.552
		c-1.034,0.259-2.327,0.259-4.461,0.259c1.034,1.293,1.551,1.81,2.069,2.069c1.81,1.552,4.202,2.651,4.978,4.461
		c0.776,2.069,0.517,4.978,0,7.628c0,0.517-2.909,0.776-4.719,0.776c-3.685,0-7.305,0-10.731,0c0,6.788,0,12.283,0,17.002
		c3.168,1.552,4.978,2.327,7.305,3.426c0.776-0.259,2.069-1.034,3.685-1.293c4.978-0.776,6.271-2.327,7.305-7.305
		c0.259-1.81,1.552-3.685,3.168-4.719c2.069-1.293,4.719-1.81,3.943-5.495c0-0.259,2.069-1.81,2.909-1.552
		c3.426,1.552,5.495-0.259,7.887-1.81c0.776-0.517,2.909-0.517,3.426,0.259c3.426,3.168,6.788,6.529,10.214,9.956
		c1.293,1.293,1.81,3.168,2.651,4.978c-1.81,0.776-3.685,1.293-5.495,2.069c-0.517,0.259-1.034,0.259-2.651,0.517
		c2.327,1.293,4.202,2.327,5.754,3.168c1.552-3.426,3.168-6.529,4.978-9.956c0,0,1.034,0.259,2.909,0.517
		c-1.034-1.034-1.81-1.552-2.327-2.069c-3.426-3.168-6.788-6.012-9.956-9.438c-0.776-0.776-1.034-3.168-0.517-3.943
		c1.293-1.81,1.81,0.259,2.909,1.034c3.168,2.909,6.788,5.495,10.214,8.145c0.517,0.517,1.034,1.293,1.293,2.069
		c1.552,4.202,3.168,8.404,4.719,12.283c0.259,0.517,1.293,0.776,1.552,1.034c1.034-1.552,2.069-2.909,2.909-4.202
		c-1.034-1.81-2.069-3.685-3.168-5.495c1.293-0.259,2.069,0,2.65-0.259c2.909-2.069,4.978-3.426,5.495,2.069
		c0,1.81,0.776,4.202,2.069,5.495c1.552,1.552,4.202,2.651,6.529,3.685c1.034,0.517,2.651,0,3.685,0.259
		c1.034,0,2.327,0.259,3.426,0c1.552-0.259,2.909-0.776,5.236-1.81c-1.293,5.236-2.327,9.18-3.426,13.123
		c-0.259,1.034-1.552,2.651-2.651,2.651c-3.168,0.517-6.788,1.034-9.956,0.517c-4.202-0.776-8.145-2.651-12.024-4.202
		c-3.168-1.551-5.495-0.259-6.271,3.168c-0.259,1.034-2.069,2.909-2.327,2.651c-2.651-1.552-5.236-3.168-7.628-4.978
		c-1.034-0.776-2.069-1.034-3.426-1.552c-2.327-0.776-4.978-1.81-7.305-2.651c0.259-0.259,0.776-0.517,1.034-0.776
		c0-2.327,0.517-4.978,0-7.305c0-0.259-3.168-0.259-4.978-0.517c-0.517,0-1.034-0.259-1.552-0.259
		c-5.495,1.034-11.507,1.552-16.743,3.685c-3.943,1.551-7.046,1.551-9.956,0.259c-2.327,2.327-4.719,4.202-6.271,6.529
		c-1.293,1.552-2.65,3.943-2.65,5.754c0.259,4.202-2.327,6.012-4.978,7.887c-0.776,0.517-1.81,1.293-2.327,2.069
		c-2.327,4.461-4.719,8.663-6.788,13.123c-0.517,1.034-0.776,2.069-0.517,3.168c0.259,4.202,1.293,8.404,0.517,12.283
		c-1.034,5.236-0.776,9.697,3.426,13.64c1.552,1.293,2.327,3.426,3.685,4.978c2.327,2.651,4.719,5.236,6.788,8.145
		c2.909,3.943,6.012,3.685,9.956,1.552c0.517-0.259,1.552-0.517,2.069-0.259c4.461,1.552,7.887-0.517,11.766-2.069
		c3.426-1.293,7.305-2.069,8.663,3.168c0.259,0.517,1.552,1.293,2.327,1.293c6.271,0,7.628,1.034,6.012,7.046
		c-1.293,5.495-0.776,9.956,3.426,13.899c1.034,1.034,1.81,2.909,2.069,4.461c1.293,4.202,2.327,8.404,3.168,12.865
		c0.259,1.552-0.517,3.168-1.034,4.719c-2.327,5.495-4.461,10.99-1.293,17.002c2.069,3.943,2.651,8.663,4.202,12.865
		c1.293,4.202,3.168,8.145,4.461,12.283c1.034,3.685,2.069,7.305,2.909,10.99c0.517,3.168,2.651,4.461,5.754,3.943
		c2.069-0.517,4.461-0.517,6.529-1.293c3.168-1.034,7.046-1.552,9.18-3.685c4.461-4.978,9.956-9.956,9.18-17.842
		c0-0.517,0.776-1.552,1.293-1.81c5.754-1.81,4.461-6.012,3.685-10.214c-0.259-1.552-0.517-3.685,0.259-4.461
		c2.069-2.327,4.978-4.461,7.305-6.529c1.293-1.293,3.685-2.909,3.685-4.461c0-4.461-0.517-8.921-1.034-13.382
		c-0.517-4.202-2.909-9.18-1.293-12.606c2.327-6.012,6.271-12.024,10.99-16.226c6.529-5.754,9.438-13.123,12.865-20.428
		c0.776-1.552,0.517-3.943,0.776-5.754c-2.65,0.517-4.978,1.034-7.046,1.552c-2.327,0.517-4.978,2.069-6.529,1.293
		c-1.552-0.517-2.069-3.943-3.426-5.495c-3.426-4.461-8.404-7.628-9.697-13.64c-0.517-2.327-1.81-4.461-2.651-6.788
		c-0.517-1.034-0.517-2.327-1.034-3.685c-2.327-4.978-4.719-9.956-7.046-14.933c0.259-0.259,0.776-0.776,1.034-1.034
		c1.293,0.776,3.426,1.552,3.943,2.651c2.327,5.236,7.305,9.18,7.305,15.709c0,0.517,0.259,1.034,0.776,1.552
		c4.978,4.719,6.788,10.99,7.628,17.584c0,1.034,0.517,2.069,1.034,3.426c2.327-0.776,4.202-1.293,6.012-2.327
		c6.271-3.426,12.606-6.788,18.36-10.99c3.168-2.069,4.978-6.012,7.628-8.921c2.65-2.909,0.517-4.461-1.293-6.271
		c-1.81-1.552-3.685-3.426-5.754-5.236c-0.259,0.259-1.034,1.552-2.069,2.327c-1.81,0.776-3.685,1.293-5.495,1.81
		c-0.259-1.293-0.517-2.651-0.776-4.202c0-0.259-0.259-0.517-0.517-0.776c-0.517,0.517-1.034,1.034-1.552,1.293
		c-1.552-3.168-3.426-6.012-4.719-9.18c-0.259-0.776,0.259-2.65,0.776-2.909c0.776-0.517,2.327,0,3.168,0.517
		c0.776,0.517,1.034,1.552,1.293,2.651c2.327,4.978,7.047,6.788,10.214,5.236c3.426,1.552,5.495,3.168,8.145,3.685
		c2.65,0.517,5.495,0.517,8.404,0.259c3.426,0,6.529-0.517,8.145,3.685c0.776,1.552,3.168,2.327,4.719,3.685
		c-0.517,0.259-1.034,0.776-1.552,1.034c3.168,3.943,3.943,4.461,6.529,1.552c0.776-7.305,1.293-14.675,1.293-22.303
		C393.568,152.242,378.376,110.545,352.711,77.317z M324.655,166.659c-2.651,0-5.495-0.517-7.887-1.552
		c-3.168-1.293-5.754-1.293-9.18,0.259c-1.81,0.776-4.978,0.776-6.788-0.259c-2.327-1.293-1.552-3.685,0-5.754
		c2.069-2.909,3.426-6.271,4.978-9.18c4.719,0.517,4.719,4.202,6.012,6.529c1.81-0.776,3.426-1.293,4.978-2.069
		c-1.034-0.517-2.327-1.293-4.461-2.651c3.943-1.552,6.788-2.651,10.214-3.943c-1.293,2.651-2.65,4.719-3.685,6.788
		c2.327,1.81,4.978,3.685,7.305,5.754c1.034,0.776,2.069,2.651,1.81,3.685C327.758,165.366,325.947,166.659,324.655,166.659z
		 M352.129,167.693c0.776,3.426,1.552,6.529,2.909,11.248c-3.426-0.517-5.754-0.776-8.145-1.551
		c-3.685-1.034-4.202-3.943-2.327-6.788c1.293-2.069,0.259-3.426-0.517-5.236c-1.552-2.909-2.909-5.495-3.943-8.404
		c-0.259-0.776,0.259-2.65,1.034-3.168c3.426-2.327,6.271-6.271,12.865-3.685c-2.65,2.651-4.719,4.461-6.788,6.529
		c1.552,2.327,3.168,4.719,4.202,6.271c1.81,1.293,3.168,2.069,5.495,3.685C354.263,167.176,352.97,167.434,352.129,167.693z"/>
	<path style="fill:#F1F3F7;" d="M122.634,136.016L122.634,136.016L122.634,136.016L122.634,136.016z"/>
	<path style="fill:#F1F3F7;" d="M164.267,286.384c-1.034-0.517-1.81-1.81-2.909-2.327c-1.293-1.034-2.909-2.651-4.202-2.327
		c-6.788,0.517-10.99-4.978-17.002-6.529c-4.461-1.034-3.426-5.754-4.719-8.663c-2.069-4.202-4.978-6.788-9.697-7.305
		c-2.069-0.259-4.202-1.552-6.012-2.909c-2.909-2.069-5.495-4.978-8.145-7.305c-0.776-0.776-2.327-1.81-2.909-1.552
		c-4.202,1.552-7.305,0.259-10.731-2.069c-1.293-0.776-3.943,0.259-6.012,0.517c0.259-0.776,0.517-1.81,1.034-2.651
		c-0.259-0.259-0.517-0.517-1.034-0.776c-3.685,3.168-7.628,6.529-11.507,9.956c-1.552-1.81-3.943-3.168-7.046-1.034
		c-0.776,0.517-2.651-0.259-3.426-1.034c-3.943-2.909-2.65-7.046-2.327-10.731c0.517-4.461-0.776-5.754-4.978-5.754
		c-1.81,0-3.685,0-5.754,0c1.293-4.719,2.651-9.438,3.685-13.899c-4.719-1.293-6.529-0.776-7.628,3.685
		c-0.776,3.943-3.943,3.943-6.271,3.943c-1.552,0.259-4.202-0.776-4.978-1.81c-1.552-3.426-2.909-7.046-3.426-10.99
		c-0.259-2.069,0.776-4.719,0.776-7.046c0-8.145,4.719-11.507,12.606-9.18c0.776,0.259,2.069-0.259,3.168-0.776
		c1.293-0.517,2.327-1.81,3.685-1.81c2.069,0,4.202,1.552,6.271,1.293c3.943-0.776,4.202,1.81,4.719,4.461
		c0.776,2.909,2.069,5.495,3.168,8.145c0.776-0.259,1.293-0.259,2.069-0.517c-0.259-2.651-0.259-5.754-1.293-8.145
		c-2.651-5.754-1.034-10.214,3.685-13.899c1.293-1.034,3.168-2.069,4.202-3.168c1.034-1.034,1.552-2.327,2.069-3.685
		c0.517-2.069-1.034-3.943,1.293-6.788c2.909-3.426,4.202-8.404,9.697-8.921c-0.776-5.495,4.719-10.214,11.766-10.731
		c-0.517,1.293-1.293,2.909-2.069,4.461c0.259,0,0.776,0.259,1.034,0.259c3.943-2.069,7.887-4.461,11.766-6.529
		c-0.517-1.034-1.034-1.81-1.034-1.81c-2.069,0.776-3.943,2.327-5.236,1.81c-1.552-0.517-2.651-2.909-3.943-4.461
		c-0.517-0.517-1.034-1.293-1.293-1.81c0.776-0.517,2.069-1.293,3.685-2.327c-4.719-2.909-7.628,0.259-10.99,1.034
		c3.426-3.685,7.046-7.046,12.865-5.754c3.426,0.776,6.788,0.517,9.438-2.651c0.517-0.517,2.069-0.517,3.168-0.517
		c2.909-2.651,3.685-5.495,1.552-7.046c-2.327-1.81-5.236-3.426-7.628-5.236c-1.293-1.034-2.651-2.651-3.426-4.202
		c-2.069-4.202-3.943-8.663-6.012-12.865c-2.327,2.909-4.202,5.236-6.012,7.628c-0.517,0-1.034,0-1.81,0
		c-1.552-2.909-2.909-5.754-4.719-9.438c-4.202-3.685-9.697-6.012-15.968-4.719c0,4.461,0,8.404,0,13.382
		c4.978,4.461,4.461,7.305-2.909,12.024c-0.517,3.685,4.202,7.628-2.651,11.248c-1.81-4.461-3.426-8.404-4.719-12.024
		c-6.529-2.651-13.123-5.236-19.911-8.404c-0.517-0.776-1.81-2.651-2.909-4.202c-0.776-1.034-2.069-2.069-2.069-3.426
		c-0.259-4.202,7.305-13.123,11.248-14.675c1.81-0.517,3.168-2.327,4.719-3.943c1.034-0.776,1.81-1.81,2.651-2.909l-0.259,0.259
		c-0.259-0.776-0.517-1.293-1.034-2.909c4.978,2.651,8.145,1.034,10.214-1.81c-0.259-2.069-0.517-3.168-0.776-4.461
		c-0.259-1.034,0-2.909-0.776-3.426c-1.81-1.034-4.202-1.552-5.236-1.81c-1.81,3.943-3.168,6.529-4.461,9.438
		c-0.259,0-0.776,0.259-1.034,0.259c-0.517-1.293-1.034-2.651-1.552-3.685c-0.517-1.293-1.034-2.651-1.81-4.719
		c-1.293,2.069-1.81,3.168-2.909,4.461c-0.517-2.909-0.259-5.754-3.685-4.978c0.259-2.327-0.517-3.943-1.552-5.495
		c-1.81,2.069-3.426,3.943-4.978,6.012c1.293,0.776,2.327,1.552,3.685,2.651c-1.81,1.81-3.426,3.426-4.978,5.236
		c-1.552-2.069-0.776-4.202,0-6.271C15.968,108.994,0.517,150.432,0,195.232c0.517,1.293,1.034,2.327,1.81,3.685
		c0.776,1.552,1.293,3.168,2.069,4.719c0.776,1.81,2.651,3.168,3.943,4.719c1.81,2.327,2.909,4.978,4.461,7.305
		c0.517-0.259,0.776-0.517,1.293-0.776c-3.943-7.046-7.887-14.416-11.766-21.463c0.517-0.259,1.034-0.776,1.552-1.034
		c0.776,1.034,2.069,2.069,2.651,3.168c1.034,1.552,1.293,3.685,2.327,4.978c3.426,4.719,7.305,8.921,10.473,13.64
		c1.552,2.327,1.81,5.495,2.651,8.404c0.259,1.034,0.776,2.327,1.81,3.168c3.426,2.327,7.046,4.461,10.731,6.529
		c3.168,1.552,6.012,2.651,10.214,1.552c2.327-0.517,5.495,3.943,8.663,5.495c3.685,1.81,7.305,2.909,9.438,6.529
		c0.517,1.034,0.517,2.909,1.293,3.685c3.168,2.327,6.529,4.461,9.697,6.529c1.034-1.551,1.81-2.909,2.909-3.943
		c0,0,1.293,0.517,1.552,1.034c0.776,2.327,1.81,4.978,2.327,7.305c1.034,4.719-1.552,8.145-4.202,11.248
		c-2.909,3.426-3.426,6.788-1.293,10.731c-3.168,2.069-2.909,4.978-1.293,7.887c1.552,3.168,3.426,6.012,4.978,8.921
		c3.426,6.788,4.978,14.933,13.123,18.36c2.909,1.293,4.202,4.461,3.943,7.887c-1.034,11.766-1.552,23.855-3.426,35.62
		c-0.259,0.776-0.259,1.81-0.517,2.651c7.628,4.719,15.451,9.18,23.596,12.865c2.651-1.293,5.236-2.327,7.046-4.202
		c2.909-3.168-0.517-6.012-2.069-9.18c8.663,2.327,9.956,1.552,13.123-6.529c0.517-1.552,2.327-2.65,3.168-4.202
		c1.551-2.327,3.685-4.978,3.943-7.628c0.776-6.529,4.719-10.99,11.248-12.024c1.552-0.259,3.685-1.81,4.461-3.426
		c3.168-5.754,4.719-11.766,4.202-18.36c0-1.293,0.259-2.651,0.776-3.685c1.81-2.909,4.461-5.495,5.754-8.404
		c1.293-2.651,1.293-5.754,1.552-8.663C168.727,286.901,166.141,287.16,164.267,286.384z"/>
	<path style="fill:#F1F3F7;" d="M93.026,44.8c3.685-0.517,6.529-0.776,8.921-1.293c-3.685-0.776-7.887-1.552-11.766-2.651
		c4.719-4.719,12.024-2.651,17.261-8.145c-2.909-0.517-4.461-0.776-6.012-1.034c0-0.259-0.259-0.776-0.259-1.034
		c4.202-1.293,8.145-2.651,12.865-4.202c0,0.259,0.259-0.776,0.259-2.069c5.236,0.517,10.731-4.202,16.226,0
		c0,0,0.259-0.259,0.259-0.517c0-0.259,0-0.776-0.259-1.293c2.069,0.776,3.943,1.293,6.788,2.327
		c-1.034-1.293-1.293-2.069-2.651-3.943c5.236,1.293,9.18,2.327,13.382,3.426c0-0.259,0.259-0.259,0.259-0.517
		c-1.552-0.776-3.426-1.552-5.236-2.069c5.236-3.943,10.731-3.943,16.485-2.327c7.305-4.461,15.451-2.651,23.079-1.81
		c4.461,0.259,8.663,2.327,13.123,3.426c0,0.517,0,0.776,0,1.293c-4.461,0.517-8.921,0.776-13.899,1.293
		c4.461,0.259,8.663,0.517,13.64,1.034c-0.776,1.293-1.552,2.327-2.327,3.426c6.788-1.81,13.899-5.236,22.562-2.327
		c-8.145,3.685-14.675,7.887-19.653,15.192c1.81,0.517,3.168,0.776,5.236,1.034c-1.034,0.517-1.552,0.517-2.909,1.034
		c2.069,0.517,3.426,0.776,4.978,1.293c-0.259,1.034-0.776,1.81-0.776,2.069c-2.327,0-4.461,0-6.271,0
		c1.81,2.069,3.168,3.685,4.719,5.236c-0.517,0.259-1.293,0.776-2.069,1.293c0.776,0.776,1.551,1.552,2.327,2.651
		c-2.327,1.81-4.719,3.426-7.305,5.236c0.517,2.651,1.293,6.012,2.069,10.99c-3.168-1.552-5.236-2.651-7.628-3.685
		c-0.517,0.776-1.293,2.069-1.81,3.168c2.069,0.517,4.202,0.776,6.788,1.293c-4.719,4.719-10.731,5.754-16.485,7.305
		c-1.81,0.517-4.202,1.552-5.236,2.909c-2.909,3.168-5.754,5.495-10.214,5.495c-2.909,0-4.719,1.552-4.978,4.719
		c0,0.776,0,2.069-0.517,2.327c-3.168,2.909-3.426,7.046-4.461,10.731c-0.776,2.651-2.327,2.651-4.202,1.034
		c-0.517-0.517-1.293-1.552-1.81-1.552c-8.404-1.034-9.956-8.404-12.865-14.416c-1.034-2.327-2.651-4.978-2.909-7.628
		c-0.259-1.81,1.034-5.495,2.069-5.495c2.327-0.259,3.685-1.034,3.168-3.168c-0.259-1.293-2.069-2.327-3.168-3.426
		c-0.259,0.259-0.776,0.776-1.034,1.034c0.776,0.259,1.552,0.517,2.651,0.776c-0.259,0.517-0.517,1.034-0.517,1.552
		c-1.81-0.259-3.685-0.517-5.754-0.776c1.81-4.461,1.81-4.461,7.887-3.685c0.259-0.259,0.259-0.776,0.517-1.034
		c-3.168-1.034-6.012-2.069-9.438-3.426c1.293-5.754-1.552-11.248-6.271-14.933c-2.651-2.069-7.046-2.327-10.731-2.651
		c-2.651-0.259-5.236,0.517-8.145,0.517c-1.034,0-2.327-1.034-3.426-1.552C96.194,46.933,95.095,46.093,93.026,44.8z"/>
	<path style="fill:#F1F3F7;" d="M79.127,47.192c0-0.517,0-0.776,0-1.293c-0.776-0.259-1.552-0.517-2.327-0.776
		c1.81-4.719,10.473-2.909,8.921-9.18c7.046-3.168,13.64-6.271,20.687-9.697c-1.552-0.259-2.327-0.259-3.426-0.259
		c3.685-1.034,7.046-1.81,10.731-2.909c-1.552-1.034-3.168-1.81-4.719-2.069c-14.416,7.305-28.057,16.226-40.339,26.699
		C72.339,47.709,75.766,47.709,79.127,47.192z"/>
	<path style="fill:#F1F3F7;" d="M73.374,58.958c5.754-1.81,8.404,2.651,12.283,5.495c3.426,2.327,7.305,3.685,11.248,5.754
		c1.552,0.776,3.426,1.552,4.202,2.909c0.517,1.034,0,2.909-0.259,5.236c3.685,1.81,8.145,4.202,13.123,6.788
		c-1.552,2.069-3.426,3.943-5.236,6.271c-2.327-1.81-4.461-3.685-6.788-5.495c-1.552,3.426,0.259,4.719,2.327,6.012
		c2.651,1.81,4.461,3.943,1.81,7.305c-2.069-1.034-4.202-1.81-6.271-2.909c0,0.259-0.259,0.259-0.259,0.517
		c1.552,1.552,3.426,2.909,4.978,4.461c-0.259,0.259-0.517,0.517-0.517,0.776c-3.943-1.552-8.663-1.552-11.766-6.012
		c-1.81-2.327-4.978-3.943-8.663-2.651c-1.293,0.517-2.909,0-4.461,0c1.552-6.012,6.788-1.293,7.887-4.978
		c1.293-1.81,2.651-3.685,4.202-5.495c-1.552-3.685-4.978-6.012-7.887-5.495c-1.293-2.069-2.651-3.943-3.943-5.754
		c-4.461,2.909-20.17,1.034-23.596-2.327c1.034-0.259,1.81-0.259,3.685-0.517c-2.069-0.517-3.426-1.034-4.719-1.293
		c-1.034-6.529,2.327-9.956,8.663-9.18c-0.517,1.81-1.552,3.426-1.552,5.236c0,1.293,1.293,2.651,2.327,3.943
		c-0.259-2.651-2.069-5.236,1.034-7.305c3.426-2.327,6.012-2.069,8.921,1.034C73.632,60.25,73.632,59.475,73.374,58.958z"/>
</g>
<path style="fill:#F0582F;" d="M185.018,93.026c0,51.071-92.509,158.255-92.509,158.255S0,144.097,0,93.026
	S41.374,0.517,92.509,0.517C143.58,0.517,185.018,41.956,185.018,93.026z"/>
<circle style="fill:#F1F3F7;" cx="92.509" cy="93.026" r="48.226"/>
<g>
</g>
<g>
</g>
<g>
</g>
<g>
</g>
<g>
</g>
<g>
</g>
<g>
</g>
<g>
</g>
<g>
</g>
<g>
</g>
<g>
</g>
<g>
</g>
<g>
</g>
<g>
</g>
<g>
</g>
</svg>
