<?xml version="1.0" encoding="iso-8859-1"?>
<!-- Generator: Adobe Illustrator 19.0.0, SVG Export Plug-In . SVG Version: 6.00 Build 0)  -->
<svg version="1.1" id="Layer_1" xmlns="http://www.w3.org/2000/svg" xmlns:xlink="http://www.w3.org/1999/xlink" x="0px" y="0px"
	 viewBox="0 0 473.931 473.931" style="enable-background:new 0 0 473.931 473.931;" xml:space="preserve">
<circle style="fill:#58595A;" cx="236.966" cy="236.966" r="236.966"/>
<rect x="353.878" y="372.596" transform="matrix(-0.7426 0.6697 -0.6697 -0.7426 901.757 422.1558)" style="fill:#F2DE62;" width="31.759" height="23.524"/>
<polygon style="fill:#E6E768;" points="373.731,385.517 365.622,403.975 238.99,424.2 221.714,318.353 219.219,303.056 
	372.597,278.57 375.093,293.863 389.566,382.535 "/>
<polygon style="fill:#E5E65D;" points="375.459,293.807 222.081,318.297 219.219,303.056 372.597,278.57 "/>
<g>
	
		<rect x="239.349" y="316.835" transform="matrix(-0.9875 0.1577 -0.1577 -0.9875 646.7144 590.0269)" style="fill:#988534;" width="121.201" height="7.671"/>
	
		<rect x="242.804" y="335.768" transform="matrix(-0.9875 0.1577 -0.1577 -0.9875 656.5739 627.1077)" style="fill:#988534;" width="121.208" height="7.667"/>
	
		<rect x="245.974" y="355.862" transform="matrix(-0.9875 0.1577 -0.1577 -0.9875 666.0433 666.544)" style="fill:#988534;" width="121.208" height="7.667"/>
	
		<rect x="249.484" y="379.649" transform="matrix(-0.9875 0.1578 -0.1578 -0.9875 622.7546 717.5286)" style="fill:#988534;" width="66.819" height="7.675"/>
</g>
<rect x="162.117" y="270.811" transform="matrix(-0.804 0.5946 -0.5946 -0.804 489.1369 403.9239)" style="fill:#F2DE62;" width="31.767" height="23.524"/>
<polygon style="fill:#E6E768;" points="181.85,284.134 171.997,301.724 44.003,309.586 36.056,187.103 191.084,177.576 
	197.902,282.697 "/>
<polygon style="fill:#E5E65D;" points="192.457,193.019 37.429,202.545 36.056,187.099 191.084,177.576 "/>
<g>
	
		<rect x="54.12" y="208.591" transform="matrix(-0.9981 0.0614 -0.0614 -0.9981 242.2642 417.407)" style="fill:#988534;" width="121.198" height="7.671"/>
	
		<rect x="55.72" y="227.759" transform="matrix(-0.9981 0.0614 -0.0614 -0.9981 246.6341 455.6058)" style="fill:#988534;" width="121.194" height="7.667"/>
	
		<rect x="56.928" y="248.076" transform="matrix(-0.9981 0.0614 -0.0614 -0.9981 250.2986 496.1274)" style="fill:#988534;" width="121.198" height="7.667"/>
	
		<rect x="58.214" y="269.436" transform="matrix(-0.9981 0.0614 -0.0614 -0.9981 199.8565 540.4001)" style="fill:#988534;" width="66.823" height="7.671"/>
</g>
<rect x="345.033" y="169.278" transform="matrix(-0.8681 0.4964 -0.4964 -0.8681 764.092 159.0426)" style="fill:#F2DE62;" width="31.764" height="23.525"/>
<polygon style="fill:#E6E768;" points="364.534,182.995 352.683,199.305 224.655,192.128 231.099,69.559 386.176,78.248 
	380.642,183.447 "/>
<polygon style="fill:#E5E65D;" points="385.734,93.746 230.657,85.054 231.099,69.556 386.176,78.248 "/>
<g>
	
		<rect x="245.637" y="100.081" transform="matrix(-0.9984 -0.0559 0.0559 -0.9984 606.1805 224.7898)" style="fill:#988534;" width="121.195" height="7.67"/>
	
		<rect x="245.005" y="119.297" transform="matrix(-0.9984 -0.0559 0.0559 -0.9984 603.8478 263.1472)" style="fill:#988534;" width="121.199" height="7.663"/>
	
		<rect x="243.803" y="139.635" transform="matrix(-0.9984 -0.0559 0.0559 -0.9984 600.3081 303.7318)" style="fill:#988534;" width="121.199" height="7.67"/>
	
		<rect x="242.759" y="157.833" transform="matrix(-0.9984 -0.0559 0.0559 -0.9984 542.8635 338.5208)" style="fill:#988534;" width="66.814" height="7.67"/>
</g>
<g>
</g>
<g>
</g>
<g>
</g>
<g>
</g>
<g>
</g>
<g>
</g>
<g>
</g>
<g>
</g>
<g>
</g>
<g>
</g>
<g>
</g>
<g>
</g>
<g>
</g>
<g>
</g>
<g>
</g>
</svg>
